<svg width="90" height="90" viewBox="0 0 90 90" fill="none" xmlns="http://www.w3.org/2000/svg">
<g filter="url(#filter0_i_3089_14690)">
<path d="M90 21.265V68.704C90.0027 71.4997 89.4544 74.2685 88.3864 76.8521C87.3184 79.4357 85.7517 81.7835 83.7759 83.7613C81.8 85.7391 79.4537 87.3081 76.8711 88.3785C74.2885 89.449 71.5203 90 68.7246 90H21.2857C15.643 89.9973 10.232 87.7552 6.2411 83.7662C2.25015 79.7772 0.00547442 74.3673 1.00061e-05 68.7247V21.2857C-0.00270145 18.4905 0.545676 15.7222 1.61377 13.1392C2.68187 10.5561 4.24874 8.20899 6.22474 6.23203C8.20074 4.25507 10.5471 2.68707 13.1296 1.61772C15.7122 0.548365 18.4802 -0.00135437 21.2754 2.50577e-06H68.7143C71.5082 -0.00135212 74.2751 0.54761 76.8568 1.61555C79.4386 2.68348 81.7847 4.24947 83.7613 6.22412C85.7378 8.19876 87.3061 10.5434 88.3765 13.1241C89.447 15.7048 89.9986 18.4711 90 21.265V21.265Z" fill="#F6C53A"/>
</g>
<g style="mix-blend-mode:soft-light" opacity="0.4">
<path d="M45.2123 35.0824L42.7578 47.9837L45.2123 49.9432V35.0824Z" fill="black"/>
</g>
<path d="M45.3813 71.0156H44.8517C38.029 70.8623 30.2302 67.2958 28.1844 59.6621C28.1375 59.5352 28.118 59.4 28.1272 59.2653C28.1364 59.1305 28.174 58.9992 28.2377 58.8796C28.3014 58.76 28.3898 58.6547 28.4971 58.5706C28.6045 58.4865 28.7285 58.4254 28.8612 58.3911C28.994 58.3569 29.1325 58.3502 29.268 58.3717C29.4035 58.3931 29.5329 58.4421 29.6481 58.5155C29.7632 58.589 29.8616 58.6852 29.9368 58.7982C30.012 58.9112 30.0624 59.0383 30.0848 59.1715C31.8813 65.8243 38.8182 68.9411 44.8932 69.074C50.6878 69.1864 58.2789 66.3734 60.6881 58.8316C60.8145 58.6534 60.9953 58.5195 61.2042 58.4493C61.4131 58.3792 61.6393 58.3763 61.85 58.4413C62.0607 58.5062 62.2449 58.6355 62.3758 58.8104C62.5067 58.9854 62.5776 59.1968 62.5781 59.4141C60.3662 66.312 53.6474 71.0156 45.3813 71.0156Z" fill="black"/>
<path d="M25.6012 45H20.9691C14.1445 45 14.1445 45.0515 14.1445 38.1754V35.3035C14.1432 34.1766 14.364 33.0605 14.7943 32.019C15.2246 30.9776 15.856 30.0311 16.6523 29.2338C17.4486 28.4365 18.3943 27.804 19.4353 27.3724C20.4763 26.9409 21.5921 26.7187 22.719 26.7188H23.8513C24.9782 26.7187 26.094 26.9409 27.135 27.3724C28.176 27.804 29.1217 28.4365 29.918 29.2338C30.7144 30.0311 31.3457 30.9776 31.776 32.019C32.2063 33.0605 32.4271 34.1766 32.4258 35.3035V38.2269C32.4052 45.0515 32.4052 45 25.6012 45Z" fill="black"/>
<path d="M20.3022 33.4221C21.1907 33.4221 21.911 32.7018 21.911 31.8133C21.911 30.9248 21.1907 30.2045 20.3022 30.2045C19.4136 30.2045 18.6934 30.9248 18.6934 31.8133C18.6934 32.7018 19.4136 33.4221 20.3022 33.4221Z" fill="white"/>
<path opacity="0.1" d="M23.2826 39.6201C25.3501 39.6201 27.0262 37.9441 27.0262 35.8766C27.0262 33.809 25.3501 32.133 23.2826 32.133C21.2151 32.133 19.5391 33.809 19.5391 35.8766C19.5391 37.9441 21.2151 39.6201 23.2826 39.6201Z" fill="white"/>
<path d="M58.1484 40.0781C58.0281 40.0768 57.9088 40.056 57.795 40.0163C57.6449 39.9693 57.5054 39.8925 57.3845 39.7904C57.2637 39.6882 57.1637 39.5627 57.0906 39.421C57.0174 39.2794 56.9723 39.1243 56.9581 38.9649C56.9438 38.8054 56.9605 38.6446 57.0074 38.4918C57.5793 36.4931 58.7778 34.7409 60.4193 33.5036C62.0608 32.2663 64.0547 31.6122 66.0954 31.6416V31.6416C68.1338 31.6225 70.123 32.2805 71.7625 33.5163C73.4019 34.752 74.6027 36.4984 75.1835 38.4918C75.2749 38.8018 75.2423 39.1362 75.0928 39.4218C74.9433 39.7075 74.6892 39.9212 74.3858 40.0163C74.236 40.0655 74.0781 40.0837 73.9213 40.0698C73.7645 40.0559 73.612 40.0102 73.4728 39.9353C73.3336 39.8605 73.2105 39.758 73.1106 39.6339C73.0107 39.5099 72.9362 39.3667 72.8913 39.2128C72.4534 37.7142 71.5498 36.4015 70.3167 35.4725C69.0836 34.5434 67.5879 34.0485 66.055 34.0623C64.5291 34.0575 63.0425 34.5565 61.8176 35.4849C60.5927 36.4132 59.6952 37.721 59.2592 39.2128C59.1843 39.4564 59.0373 39.6704 58.8384 39.8253C58.6395 39.9802 58.3985 40.0686 58.1484 40.0781V40.0781Z" fill="black"/>
<defs>
<filter id="filter0_i_3089_14690" x="0" y="0" width="90" height="90" filterUnits="userSpaceOnUse" color-interpolation-filters="sRGB">
<feFlood flood-opacity="0" result="BackgroundImageFix"/>
<feBlend mode="normal" in="SourceGraphic" in2="BackgroundImageFix" result="shape"/>
<feColorMatrix in="SourceAlpha" type="matrix" values="0 0 0 0 0 0 0 0 0 0 0 0 0 0 0 0 0 0 127 0" result="hardAlpha"/>
<feOffset dx="-6" dy="-6"/>
<feComposite in2="hardAlpha" operator="arithmetic" k2="-1" k3="1"/>
<feColorMatrix type="matrix" values="0 0 0 0 0 0 0 0 0 0 0 0 0 0 0 0 0 0 0.04 0"/>
<feBlend mode="normal" in2="shape" result="effect1_innerShadow_3089_14690"/>
</filter>
</defs>
</svg>
